<?xml version="1.0" encoding="UTF-8"?>
<svg xmlns="http://www.w3.org/2000/svg" version="1.1" viewBox="0 0 508.63 332.13">
	<!-- Generator: Adobe Illustrator 29.8.4, SVG Export Plug-In . SVG Version: 2.1.1 Build 6)	-->
	<defs>
		<style>
			.st0, .st1, .st2, .st3, .st4, .st5, .st6, .st7, .st8, .st9 {
				fill: none;
			}

			.st0, .st1, .st3, .st5, .st6, .st7, .st8, .st9 {
				stroke-linecap: round;
				stroke-linejoin: round;
			}

			.st0, .st2, .st8 {
				stroke: #efb054;
			}

			.st0, .st4 {
				stroke-width: 3.35px;
			}

			.st1, .st2, .st3, .st5, .st8 {
				stroke-width: 2.23px;
			}

			.st1, .st4 {
				stroke: #000;
			}

			.st10 {
				fill: #5f6166;
			}

			.st11 {
				fill: #4c4c4c;
			}

			.st12 {
				fill: #fc3;
			}

			.st2, .st4 {
				stroke-miterlimit: 3.35;
			}

			.st3 {
				stroke: #f9df7d;
			}

			.st4, .st7, .st9 {
				stroke-opacity: .25;
			}

			.st5 {
				stroke: #333;
			}

			.st13 {
				fill: #333;
			}

			.st6 {
				stroke: #fff;
				stroke-opacity: .5;
				stroke-width: 4.46px;
			}

			.st7 {
				stroke-width: 4.46px;
			}

			.st7, .st9 {
				stroke: #363636;
			}

			.st14 {
				fill: #f9df7d;
			}

			.st15 {
				fill: #3f4952;
			}

			.st9 {
				stroke-width: 4.46px;
			}
		</style>
	</defs>
	<path id="driver_outline" class="st6" d="M228.52,47.84c0,5.54,1.99,10.26,5.97,14.16,3.9,3.94,8.62,5.91,14.16,5.91,5.54,0,10.26-1.97,14.16-5.91,3.9-3.9,5.86-8.62,5.86-14.16s-1.95-10.28-5.86-14.22c-3.9-3.9-8.62-5.86-14.16-5.86s-10.26,1.95-14.16,5.86c-3.98,3.94-5.97,8.68-5.97,14.22ZM226.29,157.53v-61.17c0-6.16,2.17-11.42,6.52-15.78,4.36-4.35,9.62-6.53,15.78-6.52,6.16,0,11.42,2.17,15.78,6.52,1.38,1.38,2.54,2.85,3.49,4.41.24.4.46.8.67,1.2l17.31,26.52,30.5,11.15c2.3.86,3.98,2.4,5.02,4.63,1.04,2.23,1.13,4.5.28,6.8-.86,2.3-2.4,3.98-4.63,5.02-2.23,1.04-4.5,1.15-6.8.33l-33.24-12.16c-1.86-.71-3.33-1.88-4.41-3.51l-1.67-2.57v35.13c0,6.16-2.17,11.42-6.52,15.78-4.36,4.35-9.62,6.53-15.78,6.52-6.16,0-11.42-2.17-15.78-6.52-4.35-4.36-6.53-9.62-6.52-15.78Z"/>
	<g id="driver">
		<path d="M316.35,123.85c2.3.86,3.98,2.4,5.02,4.63s1.13,4.5.28,6.8c-.86,2.3-2.4,3.98-4.63,5.02-2.23,1.04-4.5,1.15-6.8.33l-33.24-12.16c-1.86-.71-3.33-1.88-4.41-3.51l-19.74-30.17c-1.34-2.08-1.77-4.33-1.28-6.75.52-2.42,1.82-4.29,3.9-5.63,2.04-1.34,4.28-1.75,6.69-1.23,2.42.48,4.29,1.77,5.63,3.85l18.07,27.66,30.5,11.15Z"/>
		<path d="M226.29,96.36c0-6.16,2.17-11.42,6.52-15.78,4.36-4.35,9.62-6.53,15.78-6.52,6.16,0,11.42,2.17,15.78,6.52,4.35,4.36,6.53,9.62,6.52,15.78v61.17c0,6.16-2.17,11.42-6.52,15.78-4.36,4.35-9.62,6.53-15.78,6.52-6.16,0-11.42-2.17-15.78-6.52-4.35-4.36-6.53-9.62-6.52-15.78v-61.17Z"/>
		<path d="M248.66,27.77c5.54,0,10.26,1.95,14.16,5.86,3.9,3.94,5.86,8.68,5.86,14.22s-1.95,10.26-5.86,14.16c-3.9,3.94-8.62,5.91-14.16,5.91s-10.26-1.97-14.16-5.91c-3.98-3.9-5.97-8.62-5.97-14.16s1.99-10.28,5.97-14.22c3.9-3.9,8.62-5.86,14.16-5.86Z"/>
	</g>
	<g id="frame_under_rollers">
		<path class="st11" d="M345.24,234.77c.56-1.49,1.15-2.96,1.78-4.41h-198.91c.67,1.45,1.28,2.94,1.84,4.46v-.06c.19.48.35.97.5,1.45,2.75,7.88,4.13,16.32,4.13,25.32,0,3.42-.2,6.77-.61,10.04-.93,7.81-2.99,15.17-6.19,22.08l199.69.06c-3.42-7.06-5.61-14.63-6.58-22.7-.37-3.05-.56-6.19-.56-9.42,0-9.03,1.43-17.45,4.29-25.26l.61-1.56Z"/>
		<path class="st12" d="M476.96,167.41v17.29h19.35l-.17-.89-1.23-6.47c-.45-2.19-1.17-3.72-2.17-4.57-.93-.78-2.88-1.64-5.86-2.57l-.84-.22-5.41-1.51-3.68-1.06M476.96,184.69v-17.29l-135.79-37.92h-180.85l-97.37-8.53c-11.82-.19-22.55,2.84-32.18,9.09-12.19,7.96-18.72,19.48-19.57,34.57v56.55h1.34c3.09-4.87,6.78-9.46,11.1-13.77,8.51-8.51,18.03-14.59,28.55-18.24,7.99-2.83,16.56-4.24,25.71-4.24,21.15,0,39.2,7.49,54.15,22.47,7.03,6.99,12.38,14.65,16.06,22.98h213.24c3.75-8.36,9.11-16.02,16.06-22.98,14.98-14.98,33.07-22.47,54.26-22.47s39.2,7.49,54.15,22.47c8.22,8.14,14.18,17.27,17.9,27.38l.56,1.51h1.84l-9.65-50.63-.17-.95h-19.35Z"/>
		<path class="st2" d="M11.21,221.16h1.34c3.09-4.87,6.78-9.46,11.1-13.77,8.51-8.51,18.03-14.59,28.55-18.24,7.99-2.83,16.56-4.24,25.71-4.24,21.15,0,39.2,7.49,54.15,22.47,7.03,6.99,12.38,14.65,16.06,22.98M347.02,230.36h14.33c3.75-8.36,9.11-16.02,16.06-22.98,14.98-14.98,33.07-22.47,54.26-22.47s39.2,7.49,54.15,22.47c8.22,8.14,14.18,17.27,17.9,27.38l.56,1.51h1.84"/>
	</g>
	<g id="frame_highlight">
		<g id="roller_0_Layer4_0_FILL">
			<path class="st14" d="M480.64,170.92l2.62.61,2.79.67,1.17.28c3.01.97,4.96,1.82,5.86,2.57.3.26.58.55.84.89.46.61.83,1.35,1.12,2.23.02.04.04.07.06.11l.11.67-.28-1.62c-.45-2.19-1.17-3.72-2.17-4.57-.93-.78-2.88-1.64-5.86-2.57l-.84-.22-5.41-1.51-3.68-1.06-135.79-37.92h-180.85l-97.37-8.53c-11.82-.19-22.55,2.84-32.18,9.09-12.19,7.96-18.72,19.48-19.57,34.57v56.55h.67l3.01-43.89c.86-15.13,6.78-26.32,17.79-33.57,8.44-5.58,18.53-8.27,30.28-8.09l97.37,3.18h180.85l135.79,31.28,3.68.84Z"/>
		</g>
	</g>
	<g id="rollers">
		<g>
			<path class="st15" d="M126.59,212.85c-13.46-13.42-29.69-20.13-48.68-20.13s-35.26,6.71-48.68,20.13c-13.46,13.46-20.19,29.7-20.19,48.74s6.73,35.22,20.19,48.68c13.42,13.46,29.65,20.19,48.68,20.19s35.22-6.73,48.68-20.19c13.46-13.46,20.19-29.7,20.19-48.74s-6.73-35.22-20.19-48.68Z"/>
			<path class="st0" d="M9.03,261.59c0,19,6.73,35.22,20.19,48.68,13.42,13.46,29.65,20.19,48.68,20.19s35.22-6.73,48.68-20.19c13.46-13.46,20.19-29.7,20.19-48.74s-6.73-35.22-20.19-48.68c-13.46-13.42-29.69-20.13-48.68-20.13s-35.26,6.71-48.68,20.13c-13.46,13.46-20.19,29.7-20.19,48.74Z"/>
		</g>
		<g>
			<path class="st15" d="M362.81,261.59c0-19.03,6.73-35.28,20.19-48.74,13.42-13.42,29.65-20.13,48.68-20.13s35.22,6.71,48.68,20.13c13.46,13.46,20.19,29.68,20.19,48.68s-6.73,35.28-20.19,48.74-29.68,20.19-48.68,20.19-35.26-6.73-48.68-20.19c-13.46-13.46-20.19-29.68-20.19-48.68Z"/>
			<path class="st0" d="M362.82,261.59c0,19,6.73,35.22,20.19,48.68,13.42,13.46,29.65,20.19,48.68,20.19s35.22-6.73,48.68-20.19c13.46-13.46,20.19-29.7,20.19-48.74s-6.73-35.22-20.19-48.68c-13.46-13.42-29.68-20.13-48.68-20.13-19.03,0-35.26,6.71-48.68,20.13-13.46,13.46-20.19,29.7-20.19,48.74Z"/>
		</g>
	</g>
	<g id="cab">
		<g>
			<path class="st13" d="M205.66,75.34c-.97,0-1.45.48-1.45,1.45v62.12h19.02l-5.46-62.07c-.11-.93-.63-1.43-1.56-1.51h-10.54Z"/>
			<path class="st1" d="M223.23,138.91l-5.46-62.07"/>
			<path class="st5" d="M217.76,76.84c-.11-.93-.63-1.43-1.56-1.51h-10.54c-.97,0-1.45.48-1.45,1.45v62.12"/>
		</g>
		<path class="st13" d="M310.31,16.41l9.7-1.49,19.56,127.49-9.7,1.49-19.56-127.49Z"/>
		<path class="st13" d="M194.75,17.01l9.77.97-12.7,128.35-9.77-.97,12.7-128.35Z"/>
		<g>
			<path class="st10" d="M351.32,20.41V0h-175.88v20.41h175.88Z"/>
			<path class="st4" d="M175.44,20.41h175.88"/>
		</g>
		<path class="st11" d="M160.32,187.48v-60.23h180.85v60.23h-180.85Z"/>
	</g>
	<g id="frame_over_rollers">
		<path class="st7" d="M496.92,243.72h-130.46v35.68h130.46v-35.68Z"/>
		<path class="st9" d="M340.83,243.77H12.92v35.68h327.91v-35.68Z"/>
		<g>
			<path class="st12" d="M507.52,279.38v-35.63h-151.62v35.63h151.62Z"/>
			<path class="st8" d="M355.89,279.38h151.62v-35.63"/>
			<path class="st3" d="M507.52,243.75h-151.62v35.63"/>
		</g>
		<g>
			<path class="st12" d="M350.2,279.44v-35.63H1.12v35.63h349.09Z"/>
			<path class="st8" d="M1.12,279.44h349.09v-35.63"/>
			<path class="st3" d="M350.2,243.8H1.12v35.63"/>
		</g>
	</g>
</svg>